# AST/ASF file generated using VICON BodyLanguage
# -----------------------------------------------
:version 1.10
:name VICON
:units
  mass 1.0
  length 0.45
  angle deg
:documentation
   .ast/.asf automatically generated from VICON data using
   VICON BodyBuilder and BodyLanguage model FoxedUp or BRILLIANT.MOD
:root
   order TX TY TZ RX RY RZ
   axis XYZ
   position 0 0 0  
   orientation 0 0 0 
:bonedata
  begin
     id 1 
     name lhipjoint
     direction 0.558404 -0.748506 0.357664 
     length 2.4234 
     axis 0 0 0  XYZ
  end
  begin
     id 2 
     name lfemur
     direction 0.34202 -0.939693 0  
     length 7.14567  
     axis 0 0 20  XYZ
    dof rx ry rz
    limits (-160.0 20.0)
           (-70.0 70.0)
           (-60.0 70.0)
  end
  begin
     id 3 
     name ltibia
     direction 0.34202 -0.939693 0   
     length 8.13956   
     axis 0 0 20   XYZ
    dof rx
    limits (-10.0 170.0)
  end
  begin
     id 4 
     name lfoot
     direction 0.0791314 -0.217412 0.972867   
     length 2.00134   
     axis -90 7.62852e-016 20   XYZ
    dof rx rz
    limits (-45.0 90.0)
           (-70.0 20.0)
  end
  begin
     id 5 
     name ltoes
     direction 1.53547e-011 -4.21922e-011 1   
     length 1.00735   
     axis -90 7.62852e-016 20   XYZ
    dof rx
    limits (-90.0 20.0)
  end
  begin
     id 6 
     name rhipjoint
     direction -0.496392 -0.78327 0.374276   
     length 2.31584  
     axis 0 0 0  XYZ 
  end
  begin
     id 7 
     name rfemur
     direction -0.34202 -0.939693 0   
     length 7.47417   
     axis 0 0 -20   XYZ
    dof rx ry rz
    limits (-160.0 20.0)
           (-70.0 70.0)
           (-70.0 60.0)
  end
  begin
     id 8 
     name rtibia
     direction -0.34202 -0.939693 0   
     length 7.69071   
     axis 0 0 -20   XYZ
    dof rx
    limits (-10.0 170.0)
 end
 begin
     id 9 
     name rfoot
     direction -0.103069 -0.28318 0.953512   
     length 2.16135  
     axis -90 -7.62852e-016 -20   XYZ
    dof rx rz
    limits (-45.0 90.0)
           (-20.0 70.0)
  end
  begin
     id 10 
     name rtoes
     direction -1.53581e-011 -4.21904e-011 1   
     length 1.07867   
     axis -90 -7.62852e-016 -20   XYZ
    dof rx
    limits (-90.0 20.0)
  end
  begin
     id 11 
     name lowerback
     direction -0.0258961 0.994776 -0.0987407   
     length 2.19412   
     axis 0 0 0   XYZ
    dof rx ry rz
    limits (-20.0 45.0)
           (-30.0 30.0)
           (-30.0 30.0)
  end
  begin
     id 12 
     name upperback
     direction 0.0402454 0.999185 0.00320666   
     length 2.18445   
     axis 0 0 0   XYZ
    dof rx ry rz
    limits (-20.0 45.0)
           (-30.0 30.0)
           (-30.0 30.0)
  end
  begin
     id 13 
     name thorax
     direction 0.0519376 0.997415 0.0496558   
     length 2.21487   
     axis 0 0 0   XYZ
    dof rx ry rz
    limits (-20.0 45.0)
           (-30.0 30.0)
           (-30.0 30.0)
  end
  begin
     id 14 
     name lowerneck
     direction -0.0921276 0.983211 0.157506   
     length 1.61201   
     axis 0 0 0   XYZ
    dof rx ry rz
    limits (-20.0 45.0)
           (-30.0 30.0)
           (-30.0 30.0)
  end
  begin
     id 15 
     name upperneck
     direction 0.0820814 0.98162 -0.172292   
     length 1.65275   
     axis 0 0 0   XYZ
    dof rx ry rz
    limits (-20.0 45.0)
           (-30.0 30.0)
           (-30.0 30.0)
  end
  begin
     id 16
     name head
     direction 0.0336554 0.996413 -0.0776455  
     length 1.66415  
     axis 0 0 0   XYZ
    dof rx ry rz
    limits (-20.0 45.0)
           (-30.0 30.0)
           (-30.0 30.0)
  end
  begin
     id 17 
     name lclavicle
     direction 0.94696 0.284418 -0.149576  
     length 3.41447  
     axis 0 0 0   XYZ
    dof ry rz
    limits (-20.0 10.0)
           (0.0 20.0)
  end
  begin
     id 18 
     name lhumerus
     direction 1 -0.000130264 -9.81312e-005   
     length 5.19964   
     axis 180 -30 -90   XYZ
    dof rx ry rz
    limits (-60.0 90.0)
           (-90.0 90.0)
           (-90.0 90.0)
  end
  begin
     id 19
     name lradius
     direction 1 -4.48961e-011 1.43854e-026   
     length 3.32189   
     axis 180 -30 -90   XYZ
    dof rx
    limits (-10.0 170.0)
  end
  begin
     id 20
     name lwrist
     direction 1 -4.48958e-011 3.1502e-026   
     length 1.66095   
     axis -1.97692e-014 90 90   XYZ
    dof ry
    limits (-180.0 0.0)
 end
  begin
     id 21 
     name lhand
     direction 1 -4.48927e-011 6.3004e-026   
     length 0.645616   
     axis -4.02019e-014 90 90   XYZ
    dof rx rz
    limits (-90.0 90.0)
           (-45.0 45.0)
  end
  begin
     id 22 
     name lfingers
     direction 1 -4.4904e-011 1.26008e-025   
     length 0.520512   
     axis -8.04039e-014 90 90   XYZ
    dof rx
    limits (0.0 90.0)
  end
  begin
     id 23
     name lthumb
     direction 0.707107 -6.34947e-011 0.707107   
     length 0.747354   
     axis -90 45 2.85299e-015   XYZ
    dof rx rz
    limits (-45.0 45.0)
           (-45.0 45.0)
  end
  begin
     id 24 
     name rclavicle
     direction -0.909391 0.383475 -0.161107   
     length 3.25176  
     axis 0 0 0   XYZ 
    dof ry rz
    limits (-10.0 20.0)
           (-20.0 0.0)
  end
  begin
     id 25 
     name rhumerus
     direction -1 -4.48965e-011 -1.81384e-027  
     length 5.6595   
     axis 180 30 90   XYZ
    dof rx ry rz
    limits (-90.0 60.0)
           (-90.0 90.0)
           (-90.0 90.0)
  end
  begin
     id 26 
     name rradius
     direction -1 -4.48996e-011 -8.09397e-027   
     length 3.37604   
     axis 180 30 90   XYZ
    dof rx
    limits (-10.0 170.0)
  end
  begin
     id 27 
     name rwrist
     direction -1 -4.48927e-011 -1.56669e-026   
     length 1.68802   
     axis 1.21142e-014 -90 -90   XYZ
    dof ry
    limits (-180.0 0.0)
  end
  begin
     id 28
     name rhand
     direction -1 -4.48912e-011 -3.13339e-026   
     length 0.824702   
     axis 1.99937e-014 -90 -90   XYZ
    dof rx rz
    limits (-90.0 90.0)
           (-45.0 45.0)
  end
  begin
     id 29
     name rfingers
     direction -1 -4.49011e-011 -6.26677e-026   
     length 0.664896   
     axis 3.99874e-014 -90 -90   XYZ
    dof rx
    limits (0.0 90.0)
  end
  begin
     id 30
     name rthumb
     direction -0.707107 -6.34931e-011 0.707107   
     length 0.954662   
     axis -90 -45 -2.85299e-015   XYZ
    dof rx rz
    limits (-45.0 45.0)
           (-45.0 45.0)
  end
:hierarchy
  begin
    root lhipjoint rhipjoint lowerback
    lhipjoint lfemur
    lfemur ltibia
    ltibia lfoot
    lfoot ltoes
    rhipjoint rfemur
    rfemur rtibia
    rtibia rfoot
    rfoot rtoes
    lowerback upperback
    upperback thorax
    thorax lowerneck lclavicle rclavicle
    lowerneck upperneck
    upperneck head
    lclavicle lhumerus
    lhumerus lradius
    lradius lwrist
    lwrist lhand lthumb
    lhand lfingers
    rclavicle rhumerus
    rhumerus rradius
    rradius rwrist
    rwrist rhand rthumb
    rhand rfingers
  end

#!OML:ASF F:\VICON\USERDATA\INSTALL\rory3\rory3.ASF
:FULLY-SPECIFIED
:DEGREES
31
root 10.2884 17.5039 -33.2589 24.0882 -45.6452 -7.70351
lowerback 11.1678 -0.670415 -5.36675
upperback 0.456115 -1.41215 3.02305
thorax -5.58953 -0.524266 6.46987
lowerneck -14.6477 3.51235 -8.87284
upperneck 19.4762 4.96881 8.84361
head 7.94512 2.56951 4.97099
rclavicle 1.78906e-015 4.77083e-015
rhumerus -35.3862 -7.1519 -76.8708
rradius 44.3333
rwrist -17.7391
rhand -12.1291 16.9897
rfingers 7.12502
rthumb 13.9326 -12.5235
lclavicle 1.78906e-015 4.77083e-015
lhumerus -14.7951 14.7522 75.7373
lradius 31.1995
lwrist -3.98874
lhand -2.97131 33.4477
lfingers 7.12502
lthumb 22.7415 62.1274
rfemur -46.4232 1.12608 20.6839
rtibia 69.5811
rfoot -20.2668 -4.82103
rtoes 28.2606
lfemur -24.892 -0.834329 -24.6627
ltibia 50.3204
lfoot -16.5401 -11.4095
ltoes 38.9556
32
root 10.2388 17.459 -33.1199 24.1458 -45.5934 -7.64987
lowerback 11.2912 -0.668298 -5.37879
upperback 0.473416 -1.42043 2.94916
thorax -5.64066 -0.527304 6.40248
lowerneck -15.0509 3.48718 -8.39905
upperneck 19.828 4.89448 8.58317
head 8.16479 2.54047 4.82753
rclavicle -1.41137e-014 6.83819e-014
rhumerus -35.5849 -7.16359 -76.836
rradius 44.3311
rwrist -17.698
rhand -11.7875 17.0302
rfingers 7.12502
rthumb 14.2618 -12.4601
lclavicle -1.41137e-014 6.83819e-014
lhumerus -14.2396 14.3198 75.7968
lradius 31.2761
lwrist -3.76623
lhand -3.47547 32.3482
lfingers 7.12502
lthumb 22.2576 61.0865
rfemur -47.7693 0.839801 21.1917
rtibia 69.4896
rfoot -20.4603 -5.08338
rtoes 25.4409
lfemur -23.8283 -1.45159 -25.225
ltibia 49.7363
lfoot -17.6207 -9.21705
ltoes 31.1914
33
root 10.1888 17.4066 -32.9689 24.1357 -45.5424 -7.68763
lowerback 11.5104 -0.68135 -5.23266
upperback 0.540482 -1.4329 2.87876
thorax -5.6955 -0.538079 6.25067
lowerneck -15.2174 3.46751 -8.29374
upperneck 19.8961 4.84231 8.62865
head 8.22412 2.52929 4.82967
rclavicle 5.22804e-014 7.55382e-015
rhumerus -35.8177 -6.97574 -76.8137
rradius 44.3788
rwrist -17.7944
rhand -11.4711 17.2486
rfingers 7.12502
rthumb 14.5666 -12.2199
lclavicle 5.22804e-014 7.55382e-015
lhumerus -13.6723 13.9592 75.928
lradius 31.2872
lwrist -3.3592
lhand -3.49092 32.4083
lfingers 7.12502
lthumb 22.2427 61.1483
rfemur -48.9686 0.497414 21.7575
rtibia 69.3337
rfoot -20.2937 -5.53876
rtoes 22.0046
lfemur -23.0239 -0.956465 -25.5481
ltibia 49.3334
lfoot -17.3724 -9.50681
ltoes 33.0535
34
root 10.1411 17.3655 -32.7904 23.7026 -45.5661 -7.6602
lowerback 12.0032 -0.744746 -4.98831
upperback 0.726752 -1.51265 2.77954
thorax -5.77047 -0.587787 6.02926
lowerneck -14.6874 3.40466 -9.01589
upperneck 19.4448 4.78091 9.20918
head 7.94405 2.50772 5.10191
rclavicle 5.76476e-015 -1.98785e-014
rhumerus -35.9552 -6.70446 -76.8108
rradius 44.3568
rwrist -17.981
rhand -11.5505 17.1656
rfingers 7.12502
rthumb 14.4901 -12.3084
lclavicle 5.76476e-015 -1.98785e-014
lhumerus -13.1671 13.6391 75.9584
lradius 31.3073
lwrist -2.80793
lhand -3.5622 32.4567
lfingers 7.12502
lthumb 22.1743 61.2049
rfemur -49.6617 -0.0193837 22.2402
rtibia 69.018
rfoot -20.118 -6.31513
rtoes 15.3626
lfemur -21.943 -0.852172 -25.9889
ltibia 48.9685
lfoot -16.5738 -10.1892
ltoes 39.6683
35
root 10.0938 17.358 -32.6271 23.7481 -45.3195 -7.60731
lowerback 12.1989 -0.951814 -4.87096
upperback 0.760308 -1.78039 2.77018
thorax -5.81043 -0.722124 6.00169
lowerneck -13.5895 3.32796 -10.4864
upperneck 18.5959 4.72344 10.3152
head 7.39594 2.48298 5.63766
rclavicle 6.16232e-015 -7.95139e-016
rhumerus -35.9985 -6.25634 -76.9118
rradius 44.3558
rwrist -17.9737
rhand -11.8076 16.863
rfingers 7.12502
rthumb 14.2424 -12.6286
lclavicle 6.16232e-015 -7.95139e-016
lhumerus -12.7614 13.5781 75.8576
lradius 31.4484
lwrist -2.68608
lhand -3.67444 32.3566
lfingers 7.12502
lthumb 22.0666 61.1176
rfemur -50.835 -0.598921 23.018
rtibia 68.5605
rfoot -19.8594 -7.83891
rtoes 3.9266
lfemur -21.4424 -2.77179 -26.353
ltibia 48.7393
lfoot -16.3356 -8.91284
ltoes 41.9592
